<svg width="24" height="24" viewBox="0 0 24 24" fill="none" xmlns="http://www.w3.org/2000/svg">
<path d="M16.1012 9.31143C16.4918 8.92091 16.4918 8.28774 16.1012 7.89722C15.7107 7.50669 15.0776 7.50669 14.687 7.89722L16.1012 9.31143ZM7.8988 14.6854C7.50828 15.076 7.50828 15.7091 7.8988 16.0997C8.28933 16.4902 8.92249 16.4902 9.31302 16.0997L7.8988 14.6854ZM14.687 16.0997C15.0776 16.4902 15.7107 16.4902 16.1012 16.0997C16.4918 15.7091 16.4918 15.076 16.1012 14.6854L14.687 16.0997ZM9.31302 7.89722C8.92249 7.50669 8.28933 7.50669 7.8988 7.89722C7.50828 8.28774 7.50828 8.92091 7.8988 9.31143L9.31302 7.89722ZM20.6 11.9984C20.6 16.7481 16.7497 20.5984 12 20.5984V22.5984C17.8542 22.5984 22.6 17.8527 22.6 11.9984H20.6ZM12 20.5984C7.25038 20.5984 3.40002 16.7481 3.40002 11.9984H1.40002C1.40002 17.8527 6.14581 22.5984 12 22.5984V20.5984ZM3.40002 11.9984C3.40002 7.24879 7.25038 3.39844 12 3.39844V1.39844C6.14581 1.39844 1.40002 6.14422 1.40002 11.9984H3.40002ZM12 3.39844C16.7497 3.39844 20.6 7.24879 20.6 11.9984H22.6C22.6 6.14422 17.8542 1.39844 12 1.39844V3.39844ZM14.687 7.89722L11.2929 11.2913L12.7071 12.7055L16.1012 9.31143L14.687 7.89722ZM11.2929 11.2913L7.8988 14.6854L9.31302 16.0997L12.7071 12.7055L11.2929 11.2913ZM16.1012 14.6854L12.7071 11.2913L11.2929 12.7055L14.687 16.0997L16.1012 14.6854ZM12.7071 11.2913L9.31302 7.89722L7.8988 9.31143L11.2929 12.7055L12.7071 11.2913Z" fill="#0F8CB4"/>
</svg>
